<?xml version="1.0" standalone="no"?>
<!DOCTYPE svg PUBLIC "-//W3C//DTD SVG 20010904//EN"
 "http://www.w3.org/TR/2001/REC-SVG-20010904/DTD/svg10.dtd">
<svg version="1.0" xmlns="http://www.w3.org/2000/svg"
 width="512.000000pt" height="512.000000pt" viewBox="0 0 512.000000 512.000000"
 preserveAspectRatio="xMidYMid meet">
<metadata>
Created by potrace 1.14, written by Peter Selinger 2001-2017
</metadata>
<g transform="translate(0.000000,512.000000) scale(0.100000,-0.100000)"
fill="#000000" stroke="none">
<path d="M2400 5084 c-19 -2 -80 -9 -135 -15 -261 -27 -547 -109 -804 -231
-113 -53 -341 -191 -349 -210 -2 -4 -8 -8 -14 -8 -5 0 -15 -6 -22 -12 -8 -7
-24 -20 -36 -28 -13 -8 -32 -23 -42 -32 -10 -10 -21 -18 -24 -18 -9 0 -56 -45
-203 -190 -128 -127 -165 -167 -201 -220 -8 -12 -27 -36 -42 -54 -15 -17 -28
-37 -28 -43 0 -7 -4 -13 -8 -13 -4 0 -16 -15 -27 -32 -10 -18 -22 -35 -25 -38
-7 -4 -23 -33 -69 -119 -8 -14 -17 -28 -21 -31 -13 -10 -120 -237 -154 -328
-199 -521 -219 -1129 -54 -1657 57 -184 168 -437 239 -543 16 -24 29 -47 29
-53 0 -5 5 -9 10 -9 6 0 10 -6 10 -13 0 -7 9 -23 20 -35 11 -12 20 -26 20 -32
0 -5 5 -10 10 -10 6 0 10 -7 10 -15 0 -9 7 -18 15 -21 8 -4 15 -11 15 -17 0
-8 44 -68 85 -114 5 -6 30 -35 55 -65 76 -90 240 -244 345 -325 73 -57 126
-93 135 -93 5 0 10 -4 10 -8 0 -5 12 -15 27 -23 16 -8 30 -16 33 -20 11 -12
172 -100 270 -147 256 -122 520 -196 817 -227 534 -56 1079 58 1528 319 62 36
88 52 159 99 10 6 24 18 32 24 7 7 16 13 21 13 4 0 22 13 39 28 18 15 42 34
54 42 31 21 73 57 129 110 27 25 61 57 77 71 32 29 147 152 179 190 60 73 195
264 195 276 0 4 7 14 15 23 47 52 175 325 234 498 204 598 180 1217 -64 1687
-42 79 -59 109 -66 115 -4 3 -9 15 -13 28 -4 12 -12 22 -17 22 -5 0 -9 7 -9
15 0 8 -4 15 -10 15 -5 0 -10 5 -10 11 0 9 -39 64 -75 105 -5 6 -26 31 -45 55
-35 43 -190 201 -226 229 -113 89 -155 120 -164 120 -5 0 -10 5 -10 10 0 6 -4
10 -10 10 -5 0 -26 12 -47 26 -52 36 -284 147 -358 172 -254 86 -494 118 -765
102 -178 -11 -314 -38 -487 -96 -122 -40 -384 -164 -391 -185 -2 -5 -8 -9 -13
-9 -5 0 -27 -12 -48 -27 -21 -16 -49 -35 -61 -43 -13 -8 -33 -24 -46 -35 -13
-11 -38 -31 -56 -45 -40 -31 -192 -183 -233 -235 -16 -21 -42 -52 -57 -69 -15
-17 -28 -36 -28 -43 0 -6 -3 -13 -7 -15 -12 -5 -73 -95 -73 -106 0 -6 -4 -12
-8 -14 -14 -5 -115 -214 -150 -308 -65 -175 -100 -344 -111 -536 -9 -150 1
-318 24 -417 25 -110 110 -327 127 -327 4 0 8 -5 8 -12 0 -11 47 -86 61 -98 3
-3 8 -10 10 -17 9 -27 143 -172 210 -228 62 -51 119 -95 124 -95 2 0 33 -17
68 -39 110 -67 267 -123 427 -151 95 -17 339 -14 440 5 181 35 357 111 507
218 106 75 180 148 268 262 9 11 27 33 40 50 36 43 130 238 159 326 43 134 59
263 53 422 -3 87 -12 165 -22 202 -16 57 -71 185 -84 195 -3 3 -13 17 -21 31
-62 110 -190 226 -337 306 -130 71 -376 102 -542 69 -131 -27 -258 -84 -359
-161 -28 -21 -142 -134 -142 -140 0 -3 -6 -13 -12 -20 -29 -32 -37 -45 -72
-110 -20 -38 -48 -105 -63 -149 -24 -72 -27 -97 -27 -226 -1 -145 -1 -146 32
-213 18 -37 37 -67 43 -67 5 0 9 -6 9 -14 0 -8 16 -27 36 -42 20 -16 42 -34
48 -39 19 -19 89 -51 139 -65 66 -18 218 -8 277 17 47 21 140 87 153 109 4 7
13 19 20 26 37 37 76 135 84 210 l6 58 -213 0 -212 0 7 48 c13 87 61 179 127
242 51 48 66 58 134 86 55 22 85 28 149 28 76 1 101 -5 185 -43 122 -55 217
-201 227 -348 5 -76 -23 -256 -46 -301 -5 -9 -21 -42 -35 -73 -15 -31 -38 -73
-51 -93 -14 -20 -25 -39 -25 -41 0 -11 -120 -135 -167 -172 -47 -37 -166 -102
-227 -123 -200 -71 -401 -65 -603 16 -48 19 -90 39 -93 42 -3 4 -31 24 -62 44
-65 43 -198 173 -198 194 0 8 -4 14 -8 14 -5 0 -15 12 -22 28 -8 15 -22 38
-31 52 -25 39 -67 157 -84 238 -37 178 -6 422 82 637 34 85 44 105 75 152 15
23 28 46 28 52 0 6 3 11 8 11 4 1 23 24 42 52 30 42 179 200 222 233 338 264
778 343 1173 211 117 -40 293 -125 303 -148 2 -5 10 -8 17 -8 7 0 15 -3 17 -8
2 -4 23 -23 48 -42 42 -33 144 -132 200 -196 27 -30 96 -132 117 -173 43 -80
54 -102 77 -161 95 -237 111 -532 45 -825 -19 -83 -48 -181 -69 -230 -67 -161
-156 -326 -205 -376 -8 -9 -15 -19 -15 -23 0 -4 -6 -13 -12 -20 -7 -7 -29 -32
-48 -56 -42 -52 -162 -173 -215 -215 -21 -16 -43 -35 -49 -40 -11 -10 -143
-99 -181 -122 -36 -22 -145 -73 -229 -108 -313 -129 -705 -151 -1046 -59 -142
38 -317 111 -415 172 -69 43 -120 77 -132 87 -14 11 -21 17 -83 65 -53 41
-206 195 -235 235 -11 15 -28 36 -37 47 -10 10 -18 20 -18 23 0 3 -8 15 -18
26 -11 10 -25 32 -32 47 -8 15 -23 41 -35 57 -42 62 -116 224 -154 340 -129
395 -105 883 66 1335 39 103 163 360 183 380 11 11 50 69 50 75 0 12 89 129
168 222 46 55 237 246 277 278 20 17 47 38 58 48 12 10 60 44 107 75 47 31 87
59 90 62 9 9 45 30 70 41 13 5 27 14 30 18 6 8 169 87 250 121 391 163 862
212 1298 135 24 -5 32 -3 32 8 0 17 -206 101 -370 150 -218 66 -410 95 -670
101 -96 2 -191 2 -210 0z"/>
</g>
</svg>
